<?xml version="1.0" encoding="utf-8"?>
<!-- Generator: Adobe Illustrator 25.0.1, SVG Export Plug-In . SVG Version: 6.00 Build 0)  -->
<svg version="1.1" id="katman_1" xmlns="http://www.w3.org/2000/svg" xmlns:xlink="http://www.w3.org/1999/xlink" x="0px" y="0px"
	 viewBox="0 0 1245.28 819.89" style="enable-background:new 0 0 1245.28 819.89;" xml:space="preserve">
<style type="text/css">
	.st0{fill:#3259A5;}
	.st1{fill:#FFFFFF;}
</style>
<g>
	<circle class="st0" cx="616.7" cy="280" r="145.66"/>
	<path class="st1" d="M666.94,289.5c-4.45,23.58-25.14,41.41-50.01,41.41c-28.12,0-50.91-22.79-50.91-50.91s22.79-50.91,50.91-50.91
		c24.87,0,45.56,17.84,50.01,41.41h51.37c-4.79-51.78-48.35-92.32-101.38-92.32c-56.24,0-101.82,45.59-101.82,101.82
		c0,56.24,45.59,101.82,101.82,101.82c53.03,0,96.59-40.54,101.38-92.32H666.94z"/>
</g>
<path class="st0" d="M288.23,540.47c-40.02,0-71.29,30.38-71.29,71.05c0,40.68,30.48,70.79,71.29,70.79
	c40.81,0,71.82-30.64,71.82-71.05C360.04,571.11,329.57,540.47,288.23,540.47z M288.49,653c-22.79,0-39.49-17.7-39.49-41.47
	c0-24.04,16.43-41.73,39.22-41.73c23.06,0,39.75,17.96,39.75,41.73C327.98,635.3,311.28,653,288.49,653z M368.79,571.38h19.88v108.3
	h31.8V543.12h-51.68V571.38z M136.91,569.79c16.7,0,29.95,10.3,34.98,25.62h33.66c-6.1-32.75-33.13-54.94-68.37-54.94
	c-40.02,0-71.29,30.38-71.29,71.05c0,40.68,30.48,70.79,71.29,70.79c34.45,0,62.01-22.19,68.11-55.21h-33.39
	c-4.77,15.32-18.02,25.89-34.72,25.89c-23.06,0-39.22-17.7-39.22-41.47C97.95,587.49,113.85,569.79,136.91,569.79z M973.01,598.32
	l-23.32-3.43c-11.13-1.58-19.08-5.28-19.08-14c0-9.51,10.34-14.26,24.38-14.26c15.37,0,25.18,6.6,27.3,17.43h30.74
	c-3.45-27.47-24.65-43.58-57.24-43.58c-33.66,0-55.92,17.17-55.92,41.47c0,23.24,14.58,36.72,43.99,40.94l23.32,3.43
	c11.4,1.58,17.76,6.08,17.76,14.53c0,10.83-11.13,15.32-26.5,15.32c-18.82,0-29.42-7.66-31.01-19.28h-31.27
	c2.92,26.68,23.85,45.43,62.01,45.43c34.72,0,57.77-15.85,57.77-43.06C1015.94,614.96,999.24,602.28,973.01,598.32z M404.56,486.85
	c-11.66,0-20.41,8.45-20.41,20.07S392.9,527,404.56,527c11.66,0,20.41-8.45,20.41-20.07S416.23,486.85,404.56,486.85z
	 M871.24,589.87c0-29.58-18.02-49.39-56.18-49.39c-36.04,0-56.18,18.23-60.16,46.23h31.54c1.59-10.83,10.07-19.81,28.09-19.81
	c16.17,0,24.12,7.13,24.12,15.85c0,11.36-14.58,14.26-32.6,16.11c-24.38,2.64-54.59,11.09-54.59,42.79
	c0,24.57,18.29,40.41,47.44,40.41c22.79,0,37.1-9.51,44.26-24.57c1.06,13.47,11.13,22.19,25.18,22.19h18.55v-28.26h-15.64V589.87z
	 M839.97,624.21c0,18.23-15.9,31.7-35.25,31.7c-11.93,0-22-5.02-22-15.58c0-13.47,16.17-17.17,31.01-18.75
	c14.31-1.32,22.26-4.49,26.24-10.57V624.21z M671.16,540.47c-17.76,0-32.6,7.4-43.2,19.81v-74.75h-31.8v194.15h31.27v-17.96
	c10.6,12.94,25.71,20.6,43.73,20.6c38.16,0,67.05-30.11,67.05-70.79C738.21,570.85,708.79,540.47,671.16,540.47z M666.39,653
	c-22.79,0-39.49-17.7-39.49-41.47c0-23.77,16.96-41.73,39.75-41.73c23.06,0,39.22,17.7,39.22,41.73
	C705.88,635.3,689.18,653,666.39,653z M520.11,540.47c-20.67,0-34.19,8.45-42.14,20.34v-17.7h-31.54v136.56h31.8v-74.22
	c0-20.87,13.25-35.66,32.86-35.66c18.29,0,29.68,12.94,29.68,31.7v78.19h31.8v-80.56C572.58,564.78,554.82,540.47,520.11,540.47z
	 M1167.52,607.04c0-39.09-28.62-66.56-67.05-66.56c-40.81,0-70.76,30.64-70.76,71.05c0,42.53,32.07,70.79,71.29,70.79
	c33.13,0,59.1-19.55,65.72-47.28h-33.13c-4.77,12.15-16.43,19.02-32.07,19.02c-20.41,0-35.78-12.68-39.22-34.87h105.21V607.04z
	 M1064.17,596.47c5.04-19.02,19.35-28.26,35.78-28.26c18.02,0,31.8,10.3,34.98,28.26H1064.17z"/>
</svg>
